<?xml version="1.0" standalone="no"?>
<!DOCTYPE svg PUBLIC "-//W3C//DTD SVG 20010904//EN"
 "http://www.w3.org/TR/2001/REC-SVG-20010904/DTD/svg10.dtd">
<svg version="1.0" xmlns="http://www.w3.org/2000/svg"
 width="221.000000pt" height="221.000000pt" viewBox="0 0 221.000000 221.000000"
 preserveAspectRatio="xMidYMid meet">
<metadata>
Created by potrace 1.14, written by Peter Selinger 2001-2017
</metadata>
<g transform="translate(0.000000,221.000000) scale(0.100000,-0.100000)"
fill="#000000" stroke="none">
<path d="M915 2048 c-188 -59 -310 -220 -307 -406 1 -90 25 -160 85 -246 71
-104 86 -135 87 -179 1 -112 -98 -192 -225 -180 -157 14 -209 7 -304 -40 -103
-50 -183 -142 -224 -257 -23 -65 -26 -196 -7 -256 89 -275 375 -400 628 -274
142 71 242 238 242 404 0 111 73 189 168 180 64 -5 93 -35 260 -264 202 -277
247 -320 369 -349 149 -36 278 -3 385 97 135 126 171 325 88 485 -17 32 -478
677 -523 732 -4 6 -72 98 -150 206 -78 107 -151 207 -162 221 -33 41 -116 95
-179 116 -64 22 -178 26 -231 10z"/>
</g>
</svg>
